<?xml version="1.0" standalone="no"?>
<!DOCTYPE svg PUBLIC "-//W3C//DTD SVG 20010904//EN"
 "http://www.w3.org/TR/2001/REC-SVG-20010904/DTD/svg10.dtd">
<svg version="1.0" xmlns="http://www.w3.org/2000/svg"
 width="260.000000pt" height="260.000000pt" viewBox="0 0 260.000000 260.000000"
 preserveAspectRatio="xMidYMid meet">
<metadata>
Created by potrace 1.11, written by Peter Selinger 2001-2013
</metadata>
<g transform="translate(0.000000,260.000000) scale(0.100000,-0.100000)"
fill="#000000" stroke="none">
<path d="M1213 2224 c-7 -7 -13 -17 -13 -23 0 -11 -75 -25 -88 -17 -6 3 -15
-1 -22 -9 -17 -21 -30 -19 -74 11 -24 17 -41 22 -45 16 -4 -7 -12 -7 -20 -2
-22 13 -41 1 -41 -26 0 -18 4 -22 17 -17 13 5 15 2 10 -18 -4 -13 -7 -28 -7
-32 0 -4 -9 -3 -20 3 -11 6 -20 20 -20 30 0 21 -29 28 -31 8 0 -7 -2 -28 -4
-45 -2 -18 0 -35 5 -38 4 -3 3 -23 -2 -44 -7 -27 -14 -38 -24 -34 -8 3 -22 2
-31 -1 -15 -6 -15 -8 -3 -16 12 -7 12 -12 2 -22 -17 -17 -15 -25 11 -33 l22
-7 -23 -6 c-28 -8 -58 -67 -40 -78 8 -5 6 -9 -5 -13 -15 -6 -15 -9 -2 -35 18
-34 19 -58 3 -74 -9 -9 -7 -12 10 -12 24 0 28 -10 10 -28 -8 -8 -5 -14 15 -23
30 -14 61 -5 54 15 -3 8 1 17 9 20 24 9 26 8 19 -14 -5 -17 -2 -20 24 -20 21
0 32 -6 36 -20 3 -11 15 -20 26 -20 10 0 19 -7 19 -15 0 -16 12 -18 59 -9 25
5 31 11 29 27 -2 11 2 22 8 24 15 5 58 -54 45 -62 -12 -7 -3 -35 10 -35 5 0 9
14 9 31 0 26 3 31 20 26 11 -3 20 -1 20 4 0 5 8 9 19 9 22 0 35 -36 15 -44 -8
-3 -14 -12 -14 -20 0 -16 35 -16 59 -1 11 6 12 1 7 -26 -5 -31 -4 -35 18 -37
28 -2 96 24 96 37 0 5 10 7 22 3 l22 -5 -22 -8 c-26 -10 -29 -27 -7 -36 16 -5
45 -53 45 -73 0 -5 -4 -10 -10 -10 -5 0 -10 9 -10 20 0 21 -25 38 -37 26 -4
-4 -2 -19 4 -35 8 -23 7 -33 -8 -52 -10 -13 -16 -31 -13 -40 3 -11 -3 -18 -17
-22 -14 -4 -20 -11 -16 -20 8 -22 -20 -56 -42 -50 -10 3 -22 0 -25 -6 -4 -5
-14 -7 -23 -4 -13 5 -15 2 -10 -16 4 -17 2 -21 -9 -17 -8 3 -14 1 -14 -3 0 -5
-23 -14 -50 -21 -28 -7 -54 -19 -59 -28 -7 -13 -10 -12 -20 6 -12 23 -36 31
-28 10 2 -7 -5 -23 -16 -36 -11 -12 -16 -22 -11 -22 5 0 10 -11 10 -25 2 -27
-20 -35 -30 -10 -6 16 -26 21 -26 6 0 -5 7 -17 16 -26 15 -15 15 -17 -1 -35
-9 -10 -14 -24 -10 -30 14 -23 -30 -49 -74 -44 -32 3 -41 0 -41 -12 0 -20 -24
-44 -44 -44 -9 0 -16 -4 -16 -9 0 -5 -12 -11 -27 -13 -14 -2 -28 -9 -29 -16
-1 -7 0 -8 3 -2 11 23 22 8 10 -17 -9 -21 -9 -27 1 -31 7 -2 17 -15 23 -29 5
-14 15 -23 25 -21 24 4 26 -30 3 -42 -10 -6 -19 -17 -19 -26 0 -15 39 -35 53
-27 5 3 3 -4 -5 -16 -7 -12 -20 -21 -28 -21 -12 -1 -11 -3 3 -11 13 -7 15 -17
10 -37 -6 -24 -5 -26 10 -13 10 7 16 21 15 30 -2 9 3 16 10 15 36 -3 42 -5 42
-13 0 -5 -9 -13 -20 -16 -11 -3 -20 -11 -20 -16 0 -17 34 -9 59 15 27 25 71
43 71 29 0 -4 -11 -21 -26 -36 -14 -15 -22 -32 -19 -37 3 -6 1 -10 -5 -10 -6
0 -8 -5 -5 -11 4 -6 -4 -22 -16 -36 l-24 -26 23 12 c12 7 27 9 32 6 6 -4 13 9
17 27 7 32 7 32 14 8 l7 -25 1 26 c1 17 8 28 20 32 16 4 18 -1 16 -27 -2 -17
-3 -38 -4 -46 -1 -12 -3 -12 -9 -2 -6 8 -9 2 -9 -18 0 -19 5 -30 15 -30 17 0
72 51 72 67 0 9 11 6 35 -7 41 -23 66 -27 47 -8 -16 16 -15 34 1 36 64 9 107
9 107 1 0 -5 4 -9 9 -9 5 0 8 8 7 18 0 10 5 16 13 14 10 -2 12 4 8 20 -12 44
30 58 60 20 7 -9 16 -12 20 -9 3 4 -3 16 -15 28 -13 11 -20 25 -16 30 4 6 13
4 23 -5 16 -15 19 -14 35 3 10 11 24 17 32 14 8 -3 14 0 14 6 0 6 6 11 14 11
7 0 19 7 27 16 12 14 14 13 22 -8 6 -14 11 -18 14 -10 3 6 11 12 18 12 16 0
28 40 12 40 -7 0 -4 7 7 15 10 8 21 29 25 47 l7 32 22 -22 c12 -12 24 -22 27
-22 10 0 4 19 -11 34 -8 9 -14 22 -11 29 2 6 0 20 -4 29 -7 13 -2 19 26 29 32
12 40 20 36 42 0 4 10 7 23 7 16 0 27 7 31 20 6 19 69 40 81 27 3 -3 21 3 39
13 31 17 33 18 28 2 -6 -15 -5 -15 10 -3 9 7 17 22 17 31 0 10 6 21 13 23 7 4
6 6 -4 6 -10 1 -16 9 -15 19 1 11 -5 16 -16 14 -12 -2 -16 2 -12 11 3 8 24 18
46 21 24 4 52 17 67 32 14 14 27 21 29 15 4 -12 22 -5 22 9 0 5 -7 16 -16 24
-8 9 -14 24 -12 33 3 15 4 15 20 0 16 -17 38 -23 38 -11 0 3 -13 19 -30 36
-35 35 -37 44 -10 53 11 3 20 14 20 23 0 14 -2 15 -10 2 -15 -24 -20 -6 -9 34
6 21 8 44 5 51 -3 8 2 19 10 26 8 7 14 23 12 35 -2 14 5 29 16 37 19 14 19 15
-2 33 -28 24 -33 124 -6 124 11 0 14 5 10 16 -3 9 -6 25 -6 36 0 14 -5 18 -15
14 -9 -3 -18 1 -22 10 -4 10 -8 12 -13 5 -4 -7 -26 8 -58 38 -40 38 -48 51
-39 61 10 10 6 12 -15 8 -15 -3 -25 -2 -23 3 3 4 -1 9 -7 12 -19 7 4 41 31 45
20 3 31 32 12 32 -20 0 -41 -13 -35 -21 3 -5 1 -9 -5 -9 -5 0 -13 5 -16 10 -3
6 -1 10 4 10 6 0 11 5 11 11 0 6 -13 9 -29 7 -16 -1 -36 4 -46 12 -16 13 -16
15 0 26 15 11 15 15 4 26 -8 7 -27 13 -42 13 -16 -1 -31 3 -34 8 -2 4 -11 3
-19 -4 -7 -6 -21 -9 -29 -5 -17 6 -20 41 -5 51 6 3 10 13 10 21 0 13 -3 13
-22 0 -30 -21 -41 -20 -34 2 4 13 -1 23 -19 32 -23 12 -27 11 -48 -10 -19 -21
-22 -22 -25 -7 -4 19 -32 23 -32 5 -1 -16 -29 32 -30 50 0 6 9 12 20 12 11 0
20 7 20 15 0 21 -26 19 -42 -4 -12 -17 -42 -32 -62 -30 -5 0 -12 -4 -15 -10
-5 -8 -13 -6 -27 5 -13 10 -15 17 -7 20 19 8 -7 44 -32 44 -11 0 -38 -9 -59
-21 -21 -11 -42 -16 -45 -11 -3 5 -19 8 -36 8 -26 -1 -30 2 -27 24 1 13 7 27
13 31 6 3 9 13 7 22 -2 13 -5 13 -15 1z m662 -354 c-3 -5 -12 -10 -18 -10 -7
0 -6 4 3 10 19 12 23 12 15 0z m-705 -1390 c0 -5 -5 -10 -11 -10 -5 0 -7 5 -4
10 3 6 8 10 11 10 2 0 4 -4 4 -10z"/>
<path d="M850 2211 c0 -5 5 -13 10 -16 6 -3 10 -2 10 4 0 5 -4 13 -10 16 -5 3
-10 2 -10 -4z"/>
<path d="M1000 1539 c0 -5 5 -7 10 -4 6 3 10 8 10 11 0 2 -4 4 -10 4 -5 0 -10
-5 -10 -11z"/>
<path d="M750 662 c0 -14 11 -21 26 -15 21 8 17 23 -6 23 -11 0 -20 -4 -20 -8z"/>
<path d="M1247 443 c-10 -9 -8 -33 2 -33 5 0 11 9 14 20 5 20 -3 26 -16 13z"/>
<path d="M1010 345 c-8 -9 -8 -15 -2 -15 12 0 26 19 19 26 -2 2 -10 -2 -17
-11z"/>
</g>
</svg>
